<svg width="26" height="26" viewBox="0 0 26 26" fill="none" xmlns="http://www.w3.org/2000/svg">
<path d="M0 22.1V19.5H3.25V10.4C3.25 8.60167 3.92708 7.00917 5.28125 5.6225C6.63542 4.21417 8.39583 3.29333 10.5625 2.86V1.95C10.5625 1.40833 10.7927 0.953332 11.2531 0.584998C11.7406 0.195 12.3229 0 13 0C13.6771 0 14.2458 0.195 14.7063 0.584998C15.1938 0.953332 15.4375 1.40833 15.4375 1.95V2.86C17.6042 3.29333 19.3646 4.21417 20.7188 5.6225C22.0729 7.00917 22.75 8.60167 22.75 10.4V19.5H26V22.1H0ZM13 26C12.1063 26 11.3344 25.7508 10.6844 25.2525C10.0615 24.7325 9.75 24.115 9.75 23.4H16.25C16.25 24.115 15.925 24.7325 15.275 25.2525C14.6521 25.7508 13.8938 26 13 26ZM6.5 19.5H19.5V10.4C19.5 8.97 18.8635 7.74583 17.5906 6.7275C16.3177 5.70917 14.7875 5.2 13 5.2C11.2125 5.2 9.68229 5.70917 8.40938 6.7275C7.13646 7.74583 6.5 8.97 6.5 10.4V19.5Z" fill="#FEF7FF"/>
</svg>
