<svg width="10" height="13" viewBox="0 0 10 13" fill="none" xmlns="http://www.w3.org/2000/svg">
<path d="M0 11.05V9.75H1.25V5.2C1.25 4.30083 1.51042 3.50458 2.03125 2.81125C2.55208 2.10708 3.22917 1.64667 4.0625 1.43V0.975C4.0625 0.704166 4.15104 0.476666 4.32813 0.292499C4.51563 0.0974998 4.73958 0 5 0C5.26042 0 5.47917 0.0974998 5.65625 0.292499C5.84375 0.476666 5.9375 0.704166 5.9375 0.975V1.43C6.77083 1.64667 7.44792 2.10708 7.96875 2.81125C8.48958 3.50458 8.75 4.30083 8.75 5.2V9.75H10V11.05H0ZM5 13C4.65625 13 4.35938 12.8754 4.10938 12.6262C3.86979 12.3662 3.75 12.0575 3.75 11.7H6.25C6.25 12.0575 6.125 12.3662 5.875 12.6262C5.63542 12.8754 5.34375 13 5 13ZM2.5 9.75H7.5V5.2C7.5 4.485 7.25521 3.87292 6.76563 3.36375C6.27604 2.85458 5.6875 2.6 5 2.6C4.3125 2.6 3.72396 2.85458 3.23438 3.36375C2.74479 3.87292 2.5 4.485 2.5 5.2V9.75Z" fill="black"/>
</svg>
