<svg width="13" height="13" viewBox="0 0 13 13" fill="none" xmlns="http://www.w3.org/2000/svg">
<path d="M2.5025 9.815C3.055 9.3925 3.6725 9.05937 4.355 8.81562C5.0375 8.57187 5.7525 8.45 6.5 8.45C7.2475 8.45 7.9625 8.57187 8.645 8.81562C9.3275 9.05937 9.945 9.3925 10.4975 9.815C10.8767 9.37083 11.1719 8.86708 11.3831 8.30375C11.5944 7.74042 11.7 7.13917 11.7 6.5C11.7 5.05917 11.1935 3.83229 10.1806 2.81938C9.16771 1.80646 7.94083 1.3 6.5 1.3C5.05917 1.3 3.83229 1.80646 2.81938 2.81938C1.80646 3.83229 1.3 5.05917 1.3 6.5C1.3 7.13917 1.40562 7.74042 1.61687 8.30375C1.82812 8.86708 2.12333 9.37083 2.5025 9.815ZM6.5 7.15C5.86083 7.15 5.32188 6.93062 4.88312 6.49187C4.44438 6.05312 4.225 5.51417 4.225 4.875C4.225 4.23583 4.44438 3.69688 4.88312 3.25813C5.32188 2.81938 5.86083 2.6 6.5 2.6C7.13917 2.6 7.67812 2.81938 8.11687 3.25813C8.55562 3.69688 8.775 4.23583 8.775 4.875C8.775 5.51417 8.55562 6.05312 8.11687 6.49187C7.67812 6.93062 7.13917 7.15 6.5 7.15ZM6.5 13C5.60083 13 4.75583 12.8294 3.965 12.4881C3.17417 12.1469 2.48625 11.6838 1.90125 11.0988C1.31625 10.5138 0.853125 9.82583 0.511875 9.035C0.170625 8.24417 0 7.39917 0 6.5C0 5.60083 0.170625 4.75583 0.511875 3.965C0.853125 3.17417 1.31625 2.48625 1.90125 1.90125C2.48625 1.31625 3.17417 0.853125 3.965 0.511875C4.75583 0.170625 5.60083 0 6.5 0C7.39917 0 8.24417 0.170625 9.035 0.511875C9.82583 0.853125 10.5138 1.31625 11.0988 1.90125C11.6838 2.48625 12.1469 3.17417 12.4881 3.965C12.8294 4.75583 13 5.60083 13 6.5C13 7.39917 12.8294 8.24417 12.4881 9.035C12.1469 9.82583 11.6838 10.5138 11.0988 11.0988C10.5138 11.6838 9.82583 12.1469 9.035 12.4881C8.24417 12.8294 7.39917 13 6.5 13Z" fill="#1D1B20"/>
</svg>
