<svg width="45" height="45" viewBox="0 0 45 45" fill="none" xmlns="http://www.w3.org/2000/svg">
<path d="M22.5 33.75L30 26.25L27.375 23.625L24.375 26.625V18.75H20.625V26.625L17.625 23.625L15 26.25L22.5 33.75ZM9.375 15V35.625H35.625V15H9.375ZM9.375 39.375C8.34375 39.375 7.45313 39.0156 6.70313 38.2969C5.98438 37.5469 5.625 36.6563 5.625 35.625V12.2344C5.625 11.7969 5.6875 11.375 5.8125 10.9688C5.96875 10.5625 6.1875 10.1875 6.46875 9.84375L8.8125 6.98438C9.15625 6.54688 9.57812 6.21875 10.0781 6C10.6094 5.75 11.1563 5.625 11.7188 5.625H33.2812C33.8438 5.625 34.375 5.75 34.875 6C35.4063 6.21875 35.8438 6.54688 36.1875 6.98438L38.5313 9.84375C38.8125 10.1875 39.0156 10.5625 39.1406 10.9688C39.2969 11.375 39.375 11.7969 39.375 12.2344V35.625C39.375 36.6563 39 37.5469 38.25 38.2969C37.5313 39.0156 36.6562 39.375 35.625 39.375H9.375ZM10.125 11.25H34.875L33.2812 9.375H11.7188L10.125 11.25Z" fill="#1D1B20"/>
</svg>
