<svg width="45" height="45" viewBox="0 0 45 45" fill="none" xmlns="http://www.w3.org/2000/svg">
<path d="M11.25 39.375C10.7188 39.375 10.2734 39.1953 9.91406 38.8359C9.55469 38.4766 9.375 38.0312 9.375 37.5V33.6562C8.8125 33.0312 8.35938 32.3359 8.01562 31.5703C7.67188 30.8047 7.5 29.9688 7.5 29.0625V11.25C7.5 8.65625 8.70313 6.75781 11.1094 5.55469C13.5156 4.35156 17.3125 3.75 22.5 3.75C27.875 3.75 31.7188 4.32812 34.0313 5.48438C36.3438 6.64062 37.5 8.5625 37.5 11.25V29.0625C37.5 29.9688 37.3281 30.8047 36.9844 31.5703C36.6406 32.3359 36.1875 33.0312 35.625 33.6562V37.5C35.625 38.0312 35.4453 38.4766 35.0859 38.8359C34.7266 39.1953 34.2812 39.375 33.75 39.375H31.875C31.3438 39.375 30.8984 39.1953 30.5391 38.8359C30.1797 38.4766 30 38.0312 30 37.5V35.625H15V37.5C15 38.0312 14.8203 38.4766 14.4609 38.8359C14.1016 39.1953 13.6562 39.375 13.125 39.375H11.25ZM11.25 18.75H33.75V13.125H11.25V18.75ZM15.9375 30C16.7188 30 17.3828 29.7266 17.9297 29.1797C18.4766 28.6328 18.75 27.9688 18.75 27.1875C18.75 26.4062 18.4766 25.7422 17.9297 25.1953C17.3828 24.6484 16.7188 24.375 15.9375 24.375C15.1562 24.375 14.4922 24.6484 13.9453 25.1953C13.3984 25.7422 13.125 26.4062 13.125 27.1875C13.125 27.9688 13.3984 28.6328 13.9453 29.1797C14.4922 29.7266 15.1562 30 15.9375 30ZM29.0625 30C29.8438 30 30.5078 29.7266 31.0547 29.1797C31.6016 28.6328 31.875 27.9688 31.875 27.1875C31.875 26.4062 31.6016 25.7422 31.0547 25.1953C30.5078 24.6484 29.8438 24.375 29.0625 24.375C28.2812 24.375 27.6172 24.6484 27.0703 25.1953C26.5234 25.7422 26.25 26.4062 26.25 27.1875C26.25 27.9688 26.5234 28.6328 27.0703 29.1797C27.6172 29.7266 28.2812 30 29.0625 30ZM12.0938 9.375H33.0938C32.625 8.84375 31.6172 8.39844 30.0703 8.03906C28.5234 7.67969 26.0312 7.5 22.5938 7.5C19.25 7.5 16.8047 7.69531 15.2578 8.08594C13.7109 8.47656 12.6562 8.90625 12.0938 9.375ZM15 31.875H30C31.0312 31.875 31.9141 31.5078 32.6484 30.7734C33.3828 30.0391 33.75 29.1562 33.75 28.125V22.5H11.25V28.125C11.25 29.1562 11.6172 30.0391 12.3516 30.7734C13.0859 31.5078 13.9688 31.875 15 31.875Z" fill="#1D1B20"/>
</svg>
